<svg width="63" height="63" viewBox="0 0 63 63" fill="none" xmlns="http://www.w3.org/2000/svg">
<path d="M40.5485 18.8357L40.5486 18.836C40.9822 19.7608 41.8529 20.4336 42.9038 20.5821L61.0394 23.3556C61.0407 23.3558 61.042 23.356 61.0433 23.3562C61.9524 23.5071 62.3087 24.608 61.6833 25.2551C61.6831 25.2554 61.6828 25.2557 61.6825 25.256L48.4156 38.8771L48.4106 38.8824C47.7293 39.592 47.4016 40.5764 47.5749 41.5722L50.684 60.6984C50.6841 60.699 50.6841 60.6995 50.6842 60.7001C50.8306 61.6279 49.8385 62.2992 49.0523 61.8557L49.0523 61.8556L49.0452 61.8517L33.0065 52.9762C33.0052 52.9755 33.004 52.9748 33.0027 52.9741C32.0645 52.4481 30.9321 52.4561 29.9899 52.9699L29.9846 52.9729L13.9398 61.8517L13.9398 61.8517L13.9327 61.8557C13.1409 62.3023 12.1631 61.6235 12.3189 60.7094L12.319 60.7094L12.3202 60.7018L15.4308 41.5662L15.432 41.5587L15.4331 41.5512C15.5739 40.5931 15.2923 39.6096 14.5941 38.8823L14.5891 38.8771L1.32221 25.256C1.32188 25.2557 1.32155 25.2553 1.32122 25.255C0.683594 24.5949 1.05051 23.5043 1.94159 23.3562L20.1026 20.5819C21.1398 20.4319 21.996 19.7567 22.4451 18.8587L22.451 18.8469L22.4566 18.8349L30.488 1.65009C30.4882 1.64984 30.4883 1.6496 30.4884 1.64936C30.901 0.772443 32.1059 0.795606 32.493 1.64114L32.4929 1.64115L32.4967 1.64911L40.5485 18.8357Z" fill="#FFF500" stroke="black" stroke-width="2"/>
</svg>
